# xmcd CD database file
#
# Track frame offsets:
#	150
#	19845
#	40483
#	59183
#	79989
#	98123
#	116074
#	135185
#	139554
#	158322
#	180167
#	199895
#
# Disc length: 2933 seconds
#
# Revision: 0
# Processed by: cddbd v1.5.2PL0 Copyright (c) Steve Scherf et al.
# Submitted via: CDex 1.51
#
DISCID=9a0b730c
DTITLE=C.G. RYCHE - PASSAGES
DYEAR=2009
DGENRE=New Age
TTITLE0=C.G. RYCHE - PASSAGES
TTITLE1=C.G. RYCHE - NO ORDINARY LOVE
TTITLE2=C.G. RYCHE - NEVER AGAIN
TTITLE3=C.G. RYCHE - ONE
TTITLE4=C.G. RYCHE - MYSTIC WATER
TTITLE5=C.G. RYCHE - WISH YOU WERE HERE
TTITLE6=C.G. RYCHE - ROSANEGRA
TTITLE7=C.G. RYCHE - THE MESSENGER
TTITLE8=C.G. RYCHE - THE FLOOD
TTITLE9=C.G. RYCHE - THE MORNING AFTER
TTITLE10=C.G. RYCHE - VANISHING POINT
TTITLE11=C.G. RYCHE - CONTRABAND
EXTD=YEAR: 2009
EXTT0=
EXTT1=
EXTT2=
EXTT3=
EXTT4=
EXTT5=
EXTT6=
EXTT7=
EXTT8=
EXTT9=
EXTT10=
EXTT11=
PLAYORDER=
